<?xml version="1.0" encoding="utf-8"?>
<!-- Generator: Adobe Illustrator 24.3.0, SVG Export Plug-In . SVG Version: 6.00 Build 0)  -->
<svg version="1.1" id="Layer_1" xmlns="http://www.w3.org/2000/svg" xmlns:xlink="http://www.w3.org/1999/xlink" x="0px" y="0px"
	 viewBox="0 0 1024 768" style="enable-background:new 0 0 1024 768;" xml:space="preserve">
<style type="text/css">
	.st0{fill:#E81A1A;}
	.st1{fill:#FFFFFF;}
	.st2{fill:#C91C1C;}
	.st3{fill:#F22727;}
	.st4{fill:#EA1B2A;}
	.st5{fill:#E8E8E8;}
	.st6{fill:#2D2D2D;}
</style>
<rect class="st0" width="1024" height="768"/>
<circle class="st1" cx="510.6" cy="393.9" r="160.1"/>
<path class="st2" d="M408.3,311.4l203.3,0.9c3.1,0,5.1,3.2,3.7,6l-16.1,33.3c-0.7,1.4-2.1,2.3-3.7,2.3L427,356.6
	c-1.6,0-3.1-0.9-3.8-2.3l-18.7-36.9C403.1,314.7,405.2,311.4,408.3,311.4z"/>
<path class="st2" d="M554.4,423.2l-96.9-21.5c-4-0.9-7.3,3.2-5.5,6.9l13.6,28.7c0.6,1.4,1.9,2.4,3.4,2.7l71.1,16.4
	c2.2,0.5,4.5-0.5,5.5-2.5l12.2-23.6C559.2,427.4,557.6,423.9,554.4,423.2z"/>
<polygon class="st3" points="476.9,461.3 550.9,443.5 525.4,492.8 495,499.6 "/>
<polygon class="st3" points="577,393.6 457.3,420.4 439.4,382.5 601.9,345.4 "/>
<g>
	<circle class="st4" cx="-242.4" cy="-91.1" r="160.1"/>
	<path class="st5" d="M-344.7-173.6l203.3,0.9c3.1,0,5.1,3.2,3.7,6l-16.1,33.3c-0.7,1.4-2.1,2.3-3.7,2.3l-168.5,2.7
		c-1.6,0-3.1-0.9-3.8-2.3l-18.7-36.9C-349.9-170.3-347.8-173.6-344.7-173.6z"/>
	<path class="st5" d="M-198.6-61.8l-96.9-21.5c-4-0.9-7.3,3.2-5.5,6.9l13.6,28.7c0.6,1.4,1.9,2.4,3.4,2.7l71.1,16.4
		c2.2,0.5,4.5-0.5,5.5-2.5l12.2-23.6C-193.8-57.6-195.4-61.1-198.6-61.8z"/>
	<polygon class="st1" points="-276.1,-23.7 -202.1,-41.5 -227.6,7.8 -258,14.6 	"/>
	<polygon class="st1" points="-176,-91.4 -295.7,-64.6 -313.6,-102.5 -151.1,-139.6 	"/>
</g>
<g>
	<path class="st6" d="M639.7-250.7c0-7.9,6.2-14.1,14.1-14.1c7.7,0,13.9,6.2,13.9,14.1s-6.2,14.1-13.9,14.1
		C645.9-236.6,639.7-242.7,639.7-250.7z M642.6-222.4h22.1v106.6h-22.1V-222.4z"/>
	<path class="st6" d="M769.4-175.4c0-19.5-10.6-29.6-26.7-29.6c-16.3,0-26.9,10.1-26.9,29.6v59.6h-22.1v-106.6h22.1v12.2
		c7.2-8.7,19-13.9,31.7-13.9c25,0,43.7,15.7,43.7,45.5v62.9h-21.9V-175.4z"/>
	<path class="st6" d="M822-204.4h-12.6v-18H822v-7.5c0-24.6,12.6-35.2,40.4-35.2v18.4c-13.5,0-18.2,4.6-18.2,16.8v7.5H864v18h-19.7
		v88.6H822V-204.4z"/>
	<path class="st6" d="M929.8-114c-30.4,0-53.4-21.7-53.4-55.2c0-33.5,24-55,54.4-55s54.4,21.5,54.4,55
		C985.2-135.7,960.4-114,929.8-114z M929.8-133.2c16.5,0,32.7-11.8,32.7-36c0-24.2-15.7-35.8-32.1-35.8c-16.6,0-31.5,11.6-31.5,35.8
		C898.8-145,913.2-133.2,929.8-133.2z"/>
	<path class="st6" d="M1051.9-224.2c26.1,0,43.2,13,49.2,35.4h-23.8c-3.7-10.3-12.2-16.8-25.4-16.8c-17.8,0-29.6,13.2-29.6,36.4
		c0,23.4,11.8,36.6,29.6,36.6c13.2,0,21.3-5.8,25.4-16.8h23.8c-6,20.9-23,35.4-49.2,35.4c-30.6,0-52.3-21.7-52.3-55.2
		C999.7-202.5,1021.3-224.2,1051.9-224.2z"/>
	<path class="st6" d="M1123.1-259h22.1v143.2h-22.1V-259z"/>
	<path class="st6" d="M1171.3-250.7c0-7.9,6.2-14.1,14.1-14.1c7.7,0,13.9,6.2,13.9,14.1s-6.2,14.1-13.9,14.1
		C1177.5-236.6,1171.3-242.7,1171.3-250.7z M1174.2-222.4h22.1v106.6h-22.1V-222.4z"/>
	<path class="st6" d="M1268.5-224.2c17.6,0,30.6,8.5,36.8,17.2v-15.5h22.3v157.3h-22.3v-66.2c-6.2,8.3-19.5,17.2-37.5,17.2
		c-27.5,0-49.7-22.6-49.7-55.5S1240.2-224.2,1268.5-224.2z M1272.9-205c-16.4,0-32.3,12.4-32.3,35.4c0,23,15.9,36.4,32.3,36.4
		c16.6,0,32.3-13,32.3-36C1305.2-192,1289.6-205,1272.9-205z"/>
</g>
</svg>
