<?xml version="1.0" encoding="utf-8"?>
<!-- Generator: Adobe Illustrator 24.3.0, SVG Export Plug-In . SVG Version: 6.00 Build 0)  -->
<svg version="1.1" id="Layer_1" xmlns="http://www.w3.org/2000/svg" xmlns:xlink="http://www.w3.org/1999/xlink" x="0px" y="0px"
	 viewBox="0 0 1024 768" style="enable-background:new 0 0 1024 768;" xml:space="preserve">
<style type="text/css">
	.st0{fill:#EA1B2A;}
	.st1{fill:#E8E8E8;}
	.st2{fill:#FFFFFF;}
	.st3{fill:#2D2D2D;}
</style>
<g>
	<circle class="st0" cx="137.6" cy="396.9" r="111.5"/>
	<path class="st1" d="M66.3,339.5l141.6,0.6c2.1,0,3.5,2.2,2.6,4.2l-11.2,23.2c-0.5,1-1.5,1.6-2.6,1.6l-117.3,1.9
		c-1.1,0-2.1-0.6-2.6-1.6l-13-25.7C62.7,341.7,64.2,339.4,66.3,339.5z"/>
	<path class="st1" d="M168.1,417.3l-67.5-15c-2.8-0.6-5.1,2.2-3.9,4.8l9.5,20c0.5,1,1.3,1.6,2.3,1.9l49.5,11.4
		c1.5,0.4,3.1-0.4,3.8-1.8l8.5-16.4C171.5,420.3,170.3,417.8,168.1,417.3z"/>
	<polygon class="st2" points="114.1,443.9 165.7,431.4 147.9,465.8 126.7,470.5 	"/>
	<polygon class="st2" points="183.8,396.7 100.5,415.4 88,388.9 201.2,363.2 	"/>
</g>
<g>
	<path class="st3" d="M317.7,325.3c0-7.9,6.2-14.1,14.1-14.1c7.7,0,13.9,6.2,13.9,14.1s-6.2,14.1-13.9,14.1
		C323.9,339.4,317.7,333.3,317.7,325.3z M320.6,353.6h22.1v106.6h-22.1V353.6z"/>
	<path class="st3" d="M447.4,400.6c0-19.5-10.6-29.6-26.7-29.6c-16.3,0-26.9,10.1-26.9,29.6v59.6h-22.1V353.6h22.1v12.2
		c7.2-8.7,19-13.9,31.7-13.9c25,0,43.7,15.7,43.7,45.5v62.9h-21.9V400.6z"/>
	<path class="st3" d="M500,371.6h-12.6v-18H500V346c0-24.6,12.6-35.2,40.4-35.2v18.4c-13.5,0-18.2,4.6-18.2,16.8v7.5H542v18h-19.7
		v88.6H500V371.6z"/>
	<path class="st3" d="M607.8,462c-30.4,0-53.4-21.7-53.4-55.2c0-33.5,24-55,54.4-55s54.4,21.5,54.4,55
		C663.2,440.3,638.4,462,607.8,462z M607.8,442.8c16.5,0,32.7-11.8,32.7-36c0-24.2-15.7-35.8-32.1-35.8c-16.6,0-31.5,11.6-31.5,35.8
		C576.8,431,591.2,442.8,607.8,442.8z"/>
	<path class="st3" d="M729.9,351.8c26.1,0,43.2,13,49.2,35.4h-23.8c-3.7-10.3-12.2-16.8-25.4-16.8c-17.8,0-29.6,13.2-29.6,36.4
		c0,23.4,11.8,36.6,29.6,36.6c13.2,0,21.3-5.8,25.4-16.8h23.8c-6,20.9-23,35.4-49.2,35.4c-30.6,0-52.3-21.7-52.3-55.2
		C677.7,373.5,699.3,351.8,729.9,351.8z"/>
	<path class="st3" d="M801.1,317h22.1v143.2h-22.1V317z"/>
	<path class="st3" d="M849.3,325.3c0-7.9,6.2-14.1,14.1-14.1c7.7,0,13.9,6.2,13.9,14.1s-6.2,14.1-13.9,14.1
		C855.5,339.4,849.3,333.3,849.3,325.3z M852.2,353.6h22.1v106.6h-22.1V353.6z"/>
	<path class="st3" d="M946.5,351.8c17.6,0,30.6,8.5,36.8,17.2v-15.5h22.3v157.3h-22.3v-66.2C977,453,963.7,462,945.7,462
		c-27.5,0-49.7-22.6-49.7-55.5S918.2,351.8,946.5,351.8z M950.9,371c-16.4,0-32.3,12.4-32.3,35.4c0,23,15.9,36.4,32.3,36.4
		c16.6,0,32.3-13,32.3-36C983.2,384,967.6,371,950.9,371z"/>
</g>
</svg>
